# xmcd
#
# Track frame offsets: 
#        183
#        14800
#        33053
#        46218
#        59433
#        72133
#        91038
#        107740
#        120775
#        133463
#        145895
#        163755
#        183198
#        196560
#        209625
#        221573
#        238640
#        256368
#        268940
#        282358
#
# Disc length: 3901 seconds
#
# Revision: 3
# Processed by: cddbd v1.5.2PL0 Copyright (c) Steve Scherf et al.
# Submitted via: ExactAudioCopy v1.0b1
#
DISCID=280f3b14
DTITLE=Marvin Gaye - Motown's Greatest Hits
DYEAR=1992
DGENRE=Soul
TTITLE0=I Heard It Through The Grapevine
TTITLE1=Let's Get It On
TTITLE2=Too Busy Thinking About My Baby
TTITLE3=How Sweet It Is (To Be Loved By You)
TTITLE4=You're All I Need To Get By (With Tammi Terrell)
TTITLE5=Got To Give It Up (Part 1)
TTITLE6=That's The Way Love Is
TTITLE7=You Are Everything (With Diana Ross)
TTITLE8=Can I Get A Witness
TTITLE9=I'll Be Doggone
TTITLE10=What's Going On
TTITLE11=Abraham, Martin and John
TTITLE12=It Takes Two (With Kim Weston))
TTITLE13=Stop, Look, Listen (To Your Heart) (With Diana Ross)
TTITLE14=Chained
TTITLE15=Trouble Man
TTITLE16=I Want You
TTITLE17=You Aint Livin' Till You're Lovin' (With Tammi Terrell)
TTITLE18=The Onion Song (With Tammi Terrell)
TTITLE19=Wherever I Lay My Hat (That's My Home)
EXTD=
EXTT0=
EXTT1=
EXTT2=
EXTT3=
EXTT4=
EXTT5=
EXTT6=
EXTT7=
EXTT8=
EXTT9=
EXTT10=
EXTT11=
EXTT12=
EXTT13=
EXTT14=
EXTT15=
EXTT16=
EXTT17=
EXTT18=
EXTT19=
PLAYORDER=
